<svg width="1600" height="900" viewBox="0 0 1600 900" fill="none" xmlns="http://www.w3.org/2000/svg">
  <defs>
    <linearGradient id="paint0_linear" x1="0" y1="0" x2="1600" y2="900" gradientUnits="userSpaceOnUse">
      <stop stop-color="#1677FF" stop-opacity="0.18"/>
      <stop offset="0.35" stop-color="#5AC8FA" stop-opacity="0.16"/>
      <stop offset="0.7" stop-color="#7C4DFF" stop-opacity="0.12"/>
      <stop offset="1" stop-color="#1677FF" stop-opacity="0.2"/>
    </linearGradient>
    <radialGradient id="paint1_radial" cx="0" cy="0" r="1" gradientUnits="userSpaceOnUse" gradientTransform="translate(200 150) rotate(45) scale(420)">
      <stop stop-color="#3CD7FF" stop-opacity="0.48"/>
      <stop offset="1" stop-color="#3CD7FF" stop-opacity="0"/>
    </radialGradient>
    <radialGradient id="paint2_radial" cx="0" cy="0" r="1" gradientUnits="userSpaceOnUse" gradientTransform="translate(1400 750) rotate(-45) scale(520)">
      <stop stop-color="#7C4DFF" stop-opacity="0.4"/>
      <stop offset="1" stop-color="#7C4DFF" stop-opacity="0"/>
    </radialGradient>
  </defs>
  <rect width="1600" height="900" fill="url(#paint0_linear)"/>
  <circle cx="200" cy="150" r="380" fill="url(#paint1_radial)"/>
  <circle cx="1400" cy="750" r="450" fill="url(#paint2_radial)"/>
  <path d="M0 640C220 600 360 640 560 700C840 780 1070 720 1600 620V900H0V640Z" fill="#FFFFFF" fill-opacity="0.4"/>
  <path d="M0 560C260 520 500 620 740 670C1000 722 1230 680 1600 560V900H0V560Z" fill="#FFFFFF" fill-opacity="0.35"/>
  <path d="M0 720C380 640 640 760 920 800C1200 842 1400 820 1600 760V900H0V720Z" fill="#FFFFFF" fill-opacity="0.25"/>
  <g opacity="0.12">
    <circle cx="420" cy="520" r="120" fill="#FFFFFF"/>
    <circle cx="1220" cy="320" r="90" fill="#FFFFFF"/>
    <circle cx="900" cy="200" r="140" fill="#FFFFFF"/>
  </g>
</svg>
